<svg width="22" height="18" viewBox="0 0 22 18" fill="none" xmlns="http://www.w3.org/2000/svg">
<path d="M6.91856 17.6429C15.2205 17.6429 19.7613 10.992 19.7613 5.22432C19.7613 5.03541 19.7613 4.84736 19.7481 4.66015C20.6315 4.0423 21.394 3.27728 22 2.40092C21.1762 2.75389 20.3023 2.98537 19.4075 3.08763C20.3498 2.54216 21.055 1.68424 21.3919 0.673525C20.5059 1.18192 19.5366 1.54021 18.5258 1.73294C17.8452 1.0332 16.9452 0.569854 15.9648 0.414597C14.9845 0.259339 13.9786 0.420828 13.1028 0.874073C12.227 1.32732 11.53 2.04705 11.1198 2.9219C10.7097 3.79674 10.6091 4.77792 10.8337 5.71361C9.03914 5.62662 7.28358 5.17568 5.68096 4.39006C4.07835 3.60444 2.6645 2.50171 1.5312 1.15345C0.954001 2.11429 0.777216 3.25174 1.03684 4.33419C1.29647 5.41665 1.97298 6.36273 2.92864 6.9798C2.21033 6.95921 1.50769 6.77184 0.88 6.4335C0.88 6.45137 0.88 6.47009 0.88 6.48881C0.880285 7.4965 1.24103 8.47308 1.90105 9.2529C2.56107 10.0327 3.47972 10.5678 4.5012 10.7673C3.83669 10.9426 3.13947 10.9682 2.46312 10.8422C2.75155 11.7094 3.31308 12.4678 4.06918 13.0113C4.82528 13.5548 5.73814 13.8561 6.68008 13.8732C5.08177 15.0879 3.10733 15.7473 1.07448 15.7453C0.715355 15.7446 0.35658 15.7236 0 15.6823C2.06416 16.9632 4.46592 17.6426 6.91856 17.6395" fill="#56CCF2"/>
</svg>
