<svg width="61" height="48" viewBox="0 0 61 48" fill="none" xmlns="http://www.w3.org/2000/svg">
<path d="M19.3688 47.1429C42.0104 47.1429 54.3944 29.004 54.3944 13.2741C54.3944 12.7589 54.3944 12.246 54.3584 11.7355C56.7676 10.0504 58.8473 7.964 60.5 5.57393C58.2533 6.53657 55.87 7.16787 53.4296 7.44676C55.9994 5.95913 57.9227 3.61935 58.8416 0.862848C56.4252 2.24938 53.7815 3.22654 51.0248 3.75216C49.1688 1.84379 46.7141 0.580109 44.0405 0.15668C41.3669 -0.266749 38.6236 0.173675 36.2349 1.4098C33.8463 2.64592 31.9456 4.60883 30.8269 6.99477C29.7082 9.38071 29.4339 12.0567 30.0464 14.6085C25.1522 14.3713 20.3643 13.1414 15.9935 10.9988C11.6228 8.85625 7.76681 5.84881 4.676 2.17174C3.10182 4.79222 2.61968 7.89434 3.32775 10.8465C4.03582 13.7986 5.88085 16.3789 8.4872 18.0618C6.52818 18.0056 4.61187 17.4946 2.9 16.5719C2.9 16.6206 2.9 16.6717 2.9 16.7227C2.90078 19.471 3.88463 22.1344 5.68468 24.2611C7.48473 26.3879 9.99015 27.8472 12.776 28.3914C10.9637 28.8693 9.06219 28.9391 7.2176 28.5956C8.00422 30.9608 9.53568 33.0291 11.5978 34.5113C13.6599 35.9935 16.1495 36.8154 18.7184 36.862C14.3594 40.1747 8.97454 41.973 3.4304 41.9676C2.45097 41.9658 1.47249 41.9085 0.5 41.7959C6.12953 45.2892 12.6798 47.1422 19.3688 47.1336" fill="#56CCF2"/>
</svg>
